<?xml version="1.0" standalone="no"?>
<!DOCTYPE svg PUBLIC "-//W3C//DTD SVG 20010904//EN"
 "http://www.w3.org/TR/2001/REC-SVG-20010904/DTD/svg10.dtd">
<svg version="1.0" xmlns="http://www.w3.org/2000/svg"
 width="1280.000000pt" height="685.000000pt" viewBox="0 0 1280.000000 685.000000"
 preserveAspectRatio="xMidYMid meet">
<metadata>
Created by potrace 1.15, written by Peter Selinger 2001-2017
</metadata>
<g transform="translate(0.000000,685.000000) scale(0.100000,-0.100000)"
fill="#000000" stroke="none">
<path d="M4570 6840 l-55 -7 69 -1 c38 -1 67 -4 64 -7 -3 -3 -86 -25 -184 -50
-382 -94 -1155 -353 -1848 -619 -229 -89 -288 -117 -310 -148 -20 -28 -20 -78
-1 -125 24 -58 19 -100 -15 -135 -24 -24 -36 -29 -58 -24 -32 8 -72 50 -72 76
0 25 -10 50 -21 50 -22 0 -688 -295 -706 -313 -10 -10 -9 -23 4 -63 9 -28 13
-62 10 -76 -29 -112 -151 -100 -164 16 -4 30 -10 46 -19 46 -18 0 -209 -84
-467 -206 -213 -100 -327 -160 -327 -173 0 -14 44 -49 94 -75 49 -26 110 -34
121 -17 3 5 40 21 83 35 75 25 138 58 306 161 57 35 92 49 127 53 45 4 51 2
83 -30 31 -31 66 -114 66 -156 0 -20 8 -16 215 100 236 132 603 322 1170 605
454 226 655 334 655 353 0 16 -14 12 -137 -41 -242 -104 -329 -139 -383 -150
-30 -7 -64 -20 -75 -30 -22 -20 -217 -114 -254 -122 -36 -9 -71 32 -71 82 0
32 6 44 33 67 43 37 161 92 219 103 36 6 57 18 86 47 21 22 65 51 97 66 220
100 396 177 498 219 65 26 139 61 165 77 112 69 168 66 215 -9 16 -27 31 -49
32 -49 1 0 112 56 246 124 410 209 532 250 739 249 261 0 419 -65 750 -307
242 -177 472 -367 603 -498 70 -70 132 -128 137 -128 26 0 80 117 80 175 0 29
-9 40 -62 83 -190 150 -675 464 -875 565 -205 104 -330 147 -513 178 -41 7
-67 14 -57 17 9 2 15 8 12 13 -7 10 -219 10 -305 -1z"/>
<path d="M4930 6837 c3 -3 46 -12 97 -21 112 -19 168 -39 351 -127 249 -119
918 -553 1020 -662 l23 -24 -30 -82 c-46 -125 -84 -166 -130 -142 -10 6 -40
40 -65 75 -52 73 -154 166 -359 330 -518 412 -756 539 -1012 539 -197 1 -340
-47 -738 -246 -164 -82 -299 -148 -301 -146 -1 2 -15 25 -29 51 -44 76 -59 78
-172 21 -82 -42 -263 -120 -495 -215 -107 -44 -209 -90 -227 -104 -33 -25 -49
-69 -38 -104 14 -45 86 -22 466 145 259 115 355 150 363 136 3 -4 -9 -22 -27
-38 -73 -71 -388 -243 -1117 -610 -562 -284 -751 -383 -990 -518 -203 -115
-211 -119 -220 -106 -3 7 -5 47 -2 90 4 77 4 77 -28 104 -67 57 -102 47 -273
-76 -136 -97 -172 -117 -217 -117 -39 0 -80 -23 -80 -45 0 -24 60 -65 179
-122 64 -31 134 -69 156 -84 99 -66 667 -338 1125 -539 628 -274 796 -361 985
-505 147 -112 190 -128 407 -150 298 -31 650 -94 809 -145 125 -41 297 -83
1664 -415 1806 -439 1722 -421 2050 -435 121 -6 243 -15 270 -20 29 -6 78 -29
117 -55 37 -25 71 -45 74 -45 3 0 85 47 182 104 98 57 256 147 352 201 96 53
230 128 297 167 112 64 127 70 185 72 70 3 94 13 232 100 49 31 97 56 107 56
11 0 44 23 74 50 30 28 63 50 72 50 9 0 67 25 129 55 98 48 126 69 214 152 93
88 130 135 130 163 0 6 -16 18 -36 26 -34 14 -35 16 -21 37 8 12 88 60 178
107 90 47 220 119 289 159 69 41 173 102 232 137 208 121 484 318 775 551 158
127 393 305 475 361 87 60 226 100 243 72 17 -27 -106 -154 -316 -327 -170
-141 -333 -290 -586 -536 -130 -126 -191 -179 -213 -183 -17 -4 -30 -13 -30
-21 0 -8 -8 -27 -19 -41 -11 -17 -20 -50 -23 -89 -4 -54 -9 -66 -41 -102 -29
-32 -37 -49 -37 -78 0 -32 -8 -44 -54 -88 -62 -59 -169 -131 -209 -141 -16 -3
-34 -18 -42 -34 -17 -33 -71 -80 -91 -80 -8 0 -14 8 -14 18 -1 12 -4 10 -15
-9 -7 -14 -62 -60 -122 -101 -301 -211 -1464 -957 -1813 -1163 -175 -103 -387
-227 -466 -273 -38 -22 -117 -78 -175 -124 -57 -46 -153 -122 -214 -168 -60
-46 -125 -97 -143 -114 -67 -62 -98 -149 -157 -451 -60 -305 -129 -548 -188
-658 -84 -160 -267 -228 -684 -256 -203 -13 -331 7 -688 109 -817 233 -1298
493 -1750 945 -280 280 -424 497 -733 1110 -223 441 -273 494 -574 609 -128
49 -172 82 -203 151 -34 77 -101 288 -116 363 -6 34 -16 65 -20 68 -5 3 -9 14
-9 25 0 12 -5 19 -12 17 -20 -7 -23 -125 -4 -153 21 -31 116 -314 116 -345 0
-14 7 -34 15 -44 8 -11 15 -26 15 -33 0 -7 14 -34 30 -60 18 -28 30 -60 30
-80 0 -47 -56 -436 -75 -519 -68 -300 -167 -425 -389 -493 -85 -26 -176 -27
-248 -2 -79 27 -324 146 -463 226 -300 170 -585 384 -585 439 0 8 11 17 25 20
18 5 27 15 32 37 12 62 23 57 262 -124 82 -62 183 -132 226 -157 156 -88 452
-203 607 -234 101 -21 207 -21 236 0 29 20 57 76 71 143 21 98 33 362 28 581
-8 306 -36 450 -126 628 -45 89 -139 218 -202 278 -102 96 -302 226 -599 388
-215 118 -996 509 -1157 580 -111 48 -177 89 -235 144 -46 43 -50 31 -8 -20
l30 -37 -37 -3 c-31 -2 -38 -6 -35 -23 1 -11 7 -58 12 -105 6 -47 15 -128 21
-180 30 -264 140 -572 374 -1045 145 -293 196 -373 319 -504 191 -201 214
-236 164 -243 -13 -2 -32 -17 -43 -35 -11 -18 -26 -32 -34 -33 -19 0 -168 147
-259 255 -212 252 -384 594 -535 1061 -68 208 -134 446 -148 534 -28 165 -39
223 -44 229 -3 3 -22 -12 -42 -33 -21 -22 -39 -34 -45 -28 -4 4 -13 45 -18 89
-5 44 -16 109 -25 143 -22 83 -14 104 33 96 78 -14 87 -12 90 12 5 33 -65 98
-149 140 -79 38 -99 40 -99 10 0 -41 29 -146 64 -235 19 -49 37 -110 41 -138
14 -108 30 -155 100 -295 78 -156 136 -297 208 -507 132 -382 325 -801 442
-958 107 -144 461 -502 656 -665 183 -153 610 -393 827 -465 134 -44 226 -33
383 46 159 79 293 306 353 594 17 82 36 272 36 365 0 79 16 114 52 118 34 4
228 -77 305 -127 52 -34 98 -86 145 -161 8 -14 82 -156 163 -315 188 -370 275
-526 391 -700 210 -318 404 -512 781 -781 241 -173 403 -264 639 -358 335
-136 949 -314 1159 -337 196 -22 523 11 688 70 163 57 251 163 325 391 41 127
54 179 107 441 74 363 77 373 149 444 152 150 413 339 706 511 750 442 2301
1432 2570 1640 141 109 336 301 547 539 169 191 265 295 508 551 83 88 173
185 200 217 l50 57 0 -317 c0 -175 3 -331 8 -346 16 -57 124 -89 160 -49 13
14 17 38 17 103 0 198 -42 713 -63 778 -15 45 -46 61 -117 61 -117 -1 -203
-53 -605 -371 -507 -400 -672 -511 -1318 -881 -155 -89 -356 -201 -447 -248
-199 -105 -421 -226 -1238 -676 l-622 -344 -128 0 c-217 1 -430 18 -567 45
-245 49 -691 156 -2150 515 -1575 388 -1616 397 -1890 420 -284 24 -376 51
-494 150 -152 126 -360 234 -1006 520 -412 182 -1026 479 -1078 520 -15 12
-25 25 -22 30 9 15 166 115 312 198 264 152 626 344 1203 637 729 371 803 411
1100 596 271 169 688 380 872 442 118 40 188 50 296 44 226 -12 394 -89 712
-325 321 -238 567 -454 631 -553 32 -50 82 -89 116 -89 37 0 75 57 112 169 23
71 26 112 11 141 -13 24 -189 156 -405 302 -394 267 -653 406 -866 462 -89 24
-230 45 -219 33z m-1485 -582 c-29 -26 -70 -51 -100 -61 -27 -9 -126 -52 -218
-96 -175 -83 -237 -102 -237 -76 0 37 81 83 182 104 76 16 96 24 143 59 61 46
219 113 270 114 6 0 -12 -20 -40 -44z m-2204 -1094 c27 -27 35 -52 29 -91 -4
-37 -137 -144 -270 -218 l-55 -31 -62 30 c-35 17 -63 36 -63 43 0 17 172 183
233 224 51 36 124 71 145 72 8 0 27 -13 43 -29z m11466 -578 c19 -46 62 -289
63 -354 0 -29 -6 -51 -15 -59 -20 -16 -62 -5 -75 21 -25 45 -35 385 -13 422
10 16 25 5 40 -30z m-12012 -103 c121 -48 363 -163 735 -351 677 -340 863
-452 1036 -624 186 -184 267 -349 316 -645 16 -96 15 -539 -1 -675 -25 -209
-49 -245 -158 -245 -234 0 -665 185 -975 418 -181 136 -529 465 -596 563 -53
78 -238 446 -296 589 -136 337 -221 656 -233 874 -6 100 -5 110 13 123 24 18
64 11 159 -27z m9455 -1100 c-34 -30 -60 -39 -60 -21 0 16 51 51 74 51 18 -1
17 -4 -14 -30z m-100 -47 c0 -5 -20 -21 -45 -37 -25 -15 -50 -36 -55 -46 -6
-10 -33 -25 -60 -33 -28 -8 -112 -51 -188 -95 -75 -43 -234 -132 -352 -197
-118 -64 -348 -193 -511 -286 -162 -93 -301 -169 -307 -169 -7 0 -12 6 -12 14
0 25 182 134 630 376 135 73 331 180 435 238 210 117 446 241 458 242 4 0 7
-3 7 -7z"/>
<path d="M4430 6823 c-170 -30 -1153 -353 -1635 -538 -394 -151 -510 -200
-630 -269 -150 -87 -320 -165 -1159 -531 -524 -228 -619 -268 -781 -325 -191
-67 -226 -91 -224 -155 l0 -30 12 35 c25 74 158 103 282 60 63 -22 105 -26
105 -10 0 5 -8 25 -17 45 -22 47 -9 56 68 48 55 -5 59 -4 240 85 329 161 593
277 610 267 5 -4 9 -30 9 -58 0 -66 21 -99 58 -95 49 5 56 107 12 146 -11 9
-20 21 -20 27 0 18 84 62 343 181 371 171 446 204 461 204 9 0 15 -17 18 -50
8 -84 64 -118 97 -58 14 25 13 29 -18 79 -31 51 -32 55 -20 92 7 21 28 52 48
67 38 32 397 178 766 312 277 101 1104 376 1250 417 201 55 213 59 180 59 -16
-1 -41 -3 -55 -5z m-3050 -1417 c-20 -25 -30 -19 -30 21 l0 37 22 -21 c18 -18
19 -24 8 -37z"/>
<path d="M2665 5973 c-66 -27 -145 -81 -157 -108 -9 -21 -9 -29 5 -42 15 -16
20 -16 69 0 78 25 171 80 188 111 14 25 13 28 -4 42 -25 18 -51 17 -101 -3z"/>
<path d="M190 4984 c0 -16 137 -108 353 -238 204 -123 290 -166 330 -166 55 0
254 -75 412 -155 88 -45 248 -119 355 -164 257 -109 509 -233 539 -265 20 -21
21 -26 8 -26 -53 0 -413 158 -627 274 -254 139 -586 296 -625 296 -66 0 144
-130 755 -467 545 -301 684 -389 827 -527 231 -220 334 -528 353 -1056 10
-264 26 -450 40 -464 24 -24 102 320 145 646 4 27 -2 50 -26 95 -47 88 -104
236 -179 463 -92 277 -107 346 -91 402 l13 43 25 -30 c128 -153 140 -162 262
-189 94 -22 144 -42 139 -58 -8 -23 -63 -20 -138 6 -41 14 -75 24 -77 22 -3
-2 3 -19 12 -37 25 -47 51 -125 95 -287 22 -78 46 -155 55 -172 21 -40 63 -70
205 -146 217 -115 358 -223 390 -300 10 -22 32 -57 49 -76 22 -26 31 -46 31
-72 0 -52 39 -149 141 -345 105 -202 256 -456 366 -615 130 -186 383 -427 632
-602 228 -159 530 -326 751 -414 220 -88 525 -184 820 -258 145 -37 146 -37
355 -37 387 1 596 43 704 141 89 80 157 277 246 716 52 252 92 391 125 433 16
20 70 71 122 114 51 43 104 90 117 105 32 34 39 88 41 296 0 91 5 209 10 263
10 116 12 120 137 203 129 87 122 116 -14 59 -222 -92 -289 -109 -328 -81 -47
32 -450 152 -1000 296 -168 44 -317 86 -333 92 -54 23 10 20 134 -6 65 -14
195 -41 289 -61 207 -44 287 -56 282 -42 -2 6 -32 19 -68 29 -114 33 -1157
296 -1364 343 -110 26 -461 109 -780 186 -1010 244 -1106 267 -1280 303 -93
19 -235 42 -315 51 -255 28 -340 58 -480 170 -47 37 -112 86 -145 108 -88 60
-517 262 -960 452 -241 103 -530 237 -820 380 -137 68 -306 144 -375 170 -233
89 -592 205 -632 205 -4 0 -8 -3 -8 -6z m3590 -1599 c52 -9 250 -51 440 -95
190 -43 455 -104 590 -135 276 -63 400 -95 512 -131 77 -25 94 -36 84 -53 -12
-19 -310 45 -1106 237 -272 66 -520 125 -550 132 -213 46 -191 80 30 45z m675
-395 c384 -65 899 -185 1310 -304 249 -72 736 -225 755 -237 26 -17 -30 -2
-310 81 -981 292 -1690 450 -2021 450 -107 0 -150 -12 -184 -50 -48 -54 -7
-227 109 -460 34 -69 87 -186 117 -260 29 -74 112 -252 184 -395 72 -143 147
-296 167 -340 91 -199 233 -366 423 -495 422 -287 1111 -535 1705 -614 267
-35 578 -51 663 -33 107 23 195 197 227 450 17 134 8 408 -18 557 -46 258
-142 498 -250 625 -130 154 -364 308 -591 389 -90 33 -121 50 -73 42 76 -13
329 -131 457 -214 190 -122 331 -324 424 -604 58 -176 72 -263 78 -488 7 -279
-21 -479 -87 -625 -35 -79 -72 -120 -131 -150 -46 -24 -57 -25 -231 -25 -212
1 -385 13 -401 29 -13 13 -86 14 -106 2 -35 -22 36 -50 129 -52 117 -1 170
-49 85 -77 -78 -27 -418 13 -545 64 -37 15 -40 19 -40 55 0 74 -46 95 -305
134 -250 38 -345 70 -655 225 -307 153 -483 253 -533 303 -54 55 -267 336
-267 352 0 5 35 -27 79 -72 70 -75 101 -97 101 -75 0 10 -27 51 -84 124 -26
34 -59 85 -73 112 -14 28 -42 73 -63 100 -58 78 -170 278 -294 526 -111 222
-178 398 -206 542 -8 42 -23 72 -56 114 -49 64 -56 105 -30 169 32 75 81 121
156 146 39 13 253 2 385 -21z m10 -61 c688 -100 2067 -494 2517 -720 244 -122
382 -277 487 -544 78 -199 109 -471 91 -810 -14 -275 -55 -402 -145 -449 -38
-20 -56 -21 -310 -21 -291 0 -338 5 -620 61 -465 92 -945 271 -1358 505 -181
103 -196 115 -310 249 -190 224 -229 310 -318 704 -83 365 -135 478 -342 734
-83 103 -137 196 -137 235 0 36 29 65 75 77 52 12 196 4 370 -21z m3517 -931
c52 -15 63 -38 59 -130 -1 -40 -64 -105 -112 -118 -123 -33 -249 104 -183 199
37 52 148 76 236 49z"/>
<path d="M4874 955 c38 -34 66 -45 66 -26 0 16 -65 61 -86 61 -15 -1 -11 -8
20 -35z"/>
<path d="M6396 342 c-5 -9 150 -52 190 -52 24 0 16 26 -12 39 -36 16 -169 26
-178 13z"/>
<path d="M7960 1945 c-9 -24 -14 -25 -88 -25 -81 0 -122 -16 -122 -47 0 -47
105 -122 152 -108 61 19 118 87 118 140 0 59 -42 87 -60 40z m-60 -68 c30 -15
39 -56 15 -73 -21 -15 -83 -7 -107 14 -18 15 -24 53 -11 65 11 11 76 8 103 -6z"/>
<path d="M378 4438 c-47 -87 42 -515 188 -910 133 -359 274 -623 434 -813 98
-117 208 -225 229 -225 27 0 54 35 48 63 -11 42 -77 114 -160 173 -117 85
-157 126 -157 161 0 48 -27 116 -137 348 -232 487 -310 710 -374 1070 -27 156
-42 184 -71 133z"/>
<path d="M11759 4328 c-134 -108 -910 -577 -1116 -675 -63 -30 -93 -50 -93
-61 0 -9 -58 -76 -128 -148 -126 -130 -128 -131 -267 -203 -140 -72 -293 -161
-459 -266 -78 -51 -91 -56 -113 -46 -43 20 -82 12 -176 -35 -98 -50 -392 -214
-624 -350 -78 -46 -175 -100 -215 -120 -77 -39 -91 -51 -83 -72 3 -8 12 -104
20 -214 16 -206 25 -249 50 -228 48 40 97 355 64 408 -10 16 -11 27 -3 39 12
20 284 185 394 240 41 20 107 57 145 82 39 24 144 82 234 128 148 75 168 83
221 83 49 0 73 8 166 54 116 57 408 221 552 311 93 57 121 83 143 130 19 41
112 108 351 254 482 295 614 386 843 578 129 108 175 153 158 153 -6 0 -35
-19 -64 -42z"/>
<path d="M11355 3898 c-86 -60 -145 -122 -145 -153 0 -46 46 -41 62 7 2 5 12
10 23 12 13 2 31 24 51 65 18 34 42 73 55 87 31 33 24 30 -46 -18z"/>
<path d="M11220 3575 c0 -28 12 -32 30 -10 14 16 6 35 -16 35 -8 0 -14 -10
-14 -25z"/>
<path d="M7578 2543 c6 -2 18 -2 25 0 6 3 1 5 -13 5 -14 0 -19 -2 -12 -5z"/>
<path d="M7740 2500 c0 -5 9 -10 20 -10 11 0 20 5 20 10 0 6 -9 10 -20 10 -11
0 -20 -4 -20 -10z"/>
<path d="M8116 2475 c-14 -15 -26 -32 -26 -36 0 -12 117 -11 161 1 37 10 67
35 56 46 -3 3 -41 8 -85 11 -78 6 -81 5 -106 -22z"/>
<path d="M7990 2386 c0 -15 67 -51 115 -60 20 -4 37 -1 50 8 18 13 18 16 5 29
-32 31 -170 49 -170 23z"/>
<path d="M1746 2115 c-11 -29 10 -49 116 -112 150 -89 321 -170 412 -193 106
-27 216 -27 247 0 l24 20 -22 19 c-12 10 -64 28 -114 41 -116 28 -240 73 -444
160 -190 82 -210 88 -219 65z"/>
</g>
</svg>
